<?xml version="1.0" encoding="utf-8"?>
<!-- Generator: Adobe Illustrator 25.0.0, SVG Export Plug-In . SVG Version: 6.00 Build 0)  -->
<svg version="1.1" id="Layer_1" xmlns="http://www.w3.org/2000/svg" xmlns:xlink="http://www.w3.org/1999/xlink" x="0px" y="0px"
	 viewBox="0 0 100 125" style="enable-background:new 0 0 100 125;" xml:space="preserve">
<g>
	<path d="M7.2,30.7c0.2,0,0.4,0,0.6,0c1.7,0.1,9.7,1.7,12.4,2.2c1,0.2,1.8,0.3,2.1,0.4c2.4,0.4,5.1,0.9,7.9,0.9
		c3.7,0,6.7-0.9,8.9-2.8c3.8-3.2,3.9-7.6,2.1-11.5c3.6,0.2,5.2,1.6,6.9,4.2c1.3,2,1.7,5.7,1.9,7.7c0,0.2,0,0.4,0.1,0.5
		c0,0,0,0.1,0,0.1c-0.1,0.3,0,0.7,0.1,1V42h-9.4h-1.6c-1.1,0-2,0.9-2,2c0,1,0.7,1.8,1.6,2v35.7c0,7.4,6,13.4,13.4,13.4
		s13.4-6,13.4-13.4V63c0.6-0.3,1.1-1,1.1-1.8s-0.4-1.4-1.1-1.8V45.9c0.9-0.2,1.6-1,1.6-2c0-1.1-0.9-2-2-2h-1.6h-9.4v-9.4
		c0,0,0,0,0,0c0.9-3.4,3.1-6.3,6-7.8c-1.5,8.8,6,11.7,9,12.9c4.1,1.6,7.4,0.7,10.7-0.2c1.3-0.4,2.7-0.7,4.1-0.9
		c2.2-0.3,4.4,0.6,6.6,2.6c0.3,0.4,0.7,0.8,1.3,0.9c0.1,0,0.3,0,0.4,0c0.9,0,1.8-0.6,2-1.6C96.6,26,90.4,13.7,79.5,9.9
		c-4.2-1.5-8.4-1.4-11.7,0.2c-3.5,1.7-7,5.2-7.2,10.1c-3.1,0.9-5.8,2.9-7.7,5.5c-0.4-1.3-0.9-2.7-1.6-3.8c-2.9-4.5-6.2-6.2-11.8-6.1
		c-0.4-3-1.5-5.5-3.2-7.4c-2.1-2.3-5-3.4-8.2-3.4c-2.5,0-5.3,0.7-7.9,2.1c-6.6,3.4-12,10.1-14,17.4c-0.4,1.2-0.6,2.5-0.8,4
		c0,0,0,0,0,0C5.3,29.6,6.1,30.6,7.2,30.7z M51.9,91c-5.2,0-9.4-4.2-9.4-9.4v-0.5h3.1c1.1,0,2-0.9,2-2s-0.9-2-2-2h-3.1v-4.9h3.1
		c1.1,0,2-0.9,2-2s-0.9-2-2-2h-3.1v-4.9h18.8v18.4C61.3,86.8,57.1,91,51.9,91z M61.3,59.2H42.6v-4.9h3.1c1.1,0,2-0.9,2-2s-0.9-2-2-2
		h-3.1V46h18.8V59.2z M69.6,13.6c3.1-1.5,6.7-0.7,8.6,0c9,3.2,12.8,12.4,12.3,20.6c-2.4-1.4-4.9-2-7.3-1.7c-1.7,0.2-3.2,0.6-4.7,1
		c-3,0.8-5.3,1.5-8.2,0.4c-4.6-1.8-8.2-3.8-6-10.4c3-0.2,4.6,0.7,6.4,1.8l0.5,0.3c1,0.6,2.2,0.2,2.7-0.7c0.6-1,0.2-2.2-0.7-2.7
		l-0.5-0.3c-1.9-1.1-4.2-2.5-8.1-2.4C65.3,16.2,68.2,14.3,69.6,13.6z M10,25.6c1.8-6.3,6.4-12,12-14.9C24.2,9.6,26.3,9,28.2,9
		c2.1,0,3.9,0.7,5.3,2.2c1.4,1.5,2,3.5,2.2,5.1c-2.6,0.6-5.2,1.7-7.5,3.3c-0.9,0.6-1.1,1.9-0.5,2.8s1.9,1.1,2.8,0.5
		c1.4-1,3.6-2.2,6.4-2.7c1.6,2.6,2.4,6-0.3,8.2c-1.5,1.2-3.6,1.9-6.3,1.9c-2.4,0-4.9-0.4-7.2-0.9c-0.2,0-1-0.2-1.9-0.4
		c-5.1-1-8.9-1.7-11.2-2.1C9.8,26.4,9.9,26,10,25.6z M9.3,29.4c0,0.1-0.1,0.3-0.2,0.4C9.2,29.6,9.2,29.5,9.3,29.4z"/>
</g>
</svg>
