<svg width="76" height="96" viewBox="0 0 76 96" fill="none" xmlns="http://www.w3.org/2000/svg">
<path d="M72.4375 2.40042H3.5625C2.90581 2.40042 2.375 2.93682 2.375 3.60042V73.2004C2.375 73.864 2.90581 74.4004 3.5625 74.4004H72.4375C73.0942 74.4004 73.625 73.864 73.625 73.2004V3.60042C73.625 2.93682 73.0942 2.40042 72.4375 2.40042ZM51.0625 4.80042V7.20042H24.9375V4.80042H51.0625ZM22.5625 4.80042V8.40042C22.5625 9.06402 23.0933 9.60042 23.75 9.60042H52.25C52.9067 9.60042 53.4375 9.06402 53.4375 8.40042V4.80042H71.25V37.2004H65.8398C66.2482 36.4912 66.5 35.6788 66.5 34.8004C66.5 34.3228 66.4276 33.8524 66.2839 33.3976C67.1757 32.5072 67.6875 31.2952 67.6875 30.0004C67.6875 27.7252 66.1117 25.8136 64.0039 25.3228C63.5182 23.1928 61.6265 21.6004 59.375 21.6004C57.1235 21.6004 55.2318 23.1928 54.7461 25.3228C52.6383 25.8136 51.0625 27.7252 51.0625 30.0004C51.0625 31.2952 51.5743 32.5072 52.4661 33.3976C52.3224 33.8524 52.25 34.3228 52.25 34.8004C52.25 35.6788 52.5018 36.4912 52.9102 37.2004H52.25H44.4648C44.8732 36.4912 45.125 35.6788 45.125 34.8004C45.125 34.3228 45.0526 33.8524 44.9089 33.3976C45.8007 32.5072 46.3125 31.2952 46.3125 30.0004C46.3125 27.7252 44.7367 25.8136 42.6289 25.3228C42.1432 23.1928 40.2515 21.6004 38 21.6004C35.7485 21.6004 33.8568 23.1928 33.3711 25.3228C31.2633 25.8136 29.6875 27.7252 29.6875 30.0004C29.6875 31.2952 30.1993 32.5072 31.0911 33.3976C30.9474 33.8524 30.875 34.3228 30.875 34.8004C30.875 35.6788 31.1267 36.4912 31.5352 37.2004H23.75H23.0898C23.4983 36.4912 23.75 35.6788 23.75 34.8004C23.75 34.3228 23.6776 33.8524 23.5339 33.3976C24.4257 32.5072 24.9375 31.2952 24.9375 30.0004C24.9375 27.7252 23.3617 25.8136 21.2539 25.3228C20.7682 23.1928 18.8765 21.6004 16.625 21.6004C14.3735 21.6004 12.4818 23.1928 11.9961 25.3228C9.88831 25.8136 8.3125 27.7252 8.3125 30.0004C8.3125 31.2952 8.82431 32.5072 9.71613 33.3976C9.57244 33.8524 9.5 34.3228 9.5 34.8004C9.5 35.6788 9.75175 36.4912 10.1602 37.2004H4.75V4.80042H22.5625ZM60.5625 36.8632V32.8984L62.5896 30.85L60.9104 29.1532L59.375 30.7036L57.8396 29.152L56.1604 30.8488L58.1875 32.8972V36.8632C57.8253 37.0804 57.418 37.2004 57 37.2004C55.6902 37.2004 54.625 36.124 54.625 34.8004C54.625 34.4008 54.7331 34.0072 54.9456 33.628C55.2591 33.0712 55.0834 32.3632 54.5478 32.0212C53.8531 31.576 53.4375 30.8224 53.4375 30.0004C53.4375 28.6768 54.5027 27.6004 55.8125 27.6004C56.4692 27.6004 57 27.064 57 26.4004C57 25.0768 58.0652 24.0004 59.375 24.0004C60.6848 24.0004 61.75 25.0768 61.75 26.4004C61.75 27.064 62.2808 27.6004 62.9375 27.6004C64.2473 27.6004 65.3125 28.6768 65.3125 30.0004C65.3125 30.8224 64.8969 31.576 64.2022 32.0224C63.6666 32.3644 63.4909 33.0724 63.8044 33.6292C64.0169 34.0072 64.125 34.4008 64.125 34.8004C64.125 36.124 63.0598 37.2004 61.75 37.2004C61.332 37.2004 60.9247 37.0804 60.5625 36.8632ZM17.8125 36.8632V32.8984L19.8396 30.85L18.1604 29.1532L16.625 30.7036L15.0896 29.152L13.4104 30.8488L15.4375 32.8972V36.8632C15.0753 37.0804 14.668 37.2004 14.25 37.2004C12.9402 37.2004 11.875 36.124 11.875 34.8004C11.875 34.4008 11.9831 34.0072 12.1956 33.628C12.5091 33.0712 12.3334 32.3632 11.7978 32.0212C11.1031 31.576 10.6875 30.8224 10.6875 30.0004C10.6875 28.6768 11.7527 27.6004 13.0625 27.6004C13.7192 27.6004 14.25 27.064 14.25 26.4004C14.25 25.0768 15.3152 24.0004 16.625 24.0004C17.9348 24.0004 19 25.0768 19 26.4004C19 27.064 19.5308 27.6004 20.1875 27.6004C21.4973 27.6004 22.5625 28.6768 22.5625 30.0004C22.5625 30.8224 22.1469 31.576 21.4522 32.0224C20.9166 32.3644 20.7409 33.0724 21.0544 33.6292C21.2669 34.0072 21.375 34.4008 21.375 34.8004C21.375 36.124 20.3098 37.2004 19 37.2004C18.582 37.2004 18.1747 37.0804 17.8125 36.8632ZM24.9375 39.6004H51.0625V42.0004H24.9375V39.6004ZM33.25 34.8004C33.25 34.4008 33.3581 34.0072 33.5706 33.628C33.8841 33.0712 33.7084 32.3632 33.1728 32.0212C32.4781 31.576 32.0625 30.8224 32.0625 30.0004C32.0625 28.6768 33.1277 27.6004 34.4375 27.6004C35.0942 27.6004 35.625 27.064 35.625 26.4004C35.625 25.0768 36.6902 24.0004 38 24.0004C39.3098 24.0004 40.375 25.0768 40.375 26.4004C40.375 27.064 40.9058 27.6004 41.5625 27.6004C42.8723 27.6004 43.9375 28.6768 43.9375 30.0004C43.9375 30.8224 43.5219 31.576 42.8272 32.0224C42.2916 32.3644 42.1159 33.0724 42.4294 33.6292C42.6419 34.0072 42.75 34.4008 42.75 34.8004C42.75 36.124 41.6848 37.2004 40.375 37.2004C39.957 37.2004 39.5497 37.0804 39.1875 36.8632V32.8984L41.2146 30.85L39.5354 29.1532L38 30.7036L36.4646 29.152L34.7854 30.8488L36.8125 32.8972V36.8632C36.4503 37.0804 36.043 37.2004 35.625 37.2004C34.3152 37.2004 33.25 36.124 33.25 34.8004ZM11.875 69.6004C11.875 69.2008 11.9831 68.8072 12.1956 68.428C12.5091 67.8712 12.3334 67.1632 11.7978 66.8212C11.1031 66.376 10.6875 65.6224 10.6875 64.8004C10.6875 63.4768 11.7527 62.4004 13.0625 62.4004C13.7192 62.4004 14.25 61.864 14.25 61.2004C14.25 59.8768 15.3152 58.8004 16.625 58.8004C17.9348 58.8004 19 59.8768 19 61.2004C19 61.864 19.5308 62.4004 20.1875 62.4004C21.4973 62.4004 22.5625 63.4768 22.5625 64.8004C22.5625 65.6224 22.1469 66.376 21.4522 66.8224C20.9166 67.1644 20.7409 67.8724 21.0544 68.4292C21.2669 68.8072 21.375 69.2008 21.375 69.6004C21.375 70.924 20.3098 72.0004 19 72.0004C18.582 72.0004 18.1747 71.8804 17.8125 71.6632V67.6984L19.8396 65.65L18.1604 63.9532L16.625 65.5036L15.0896 63.952L13.4104 65.6488L15.4375 67.6972V71.6632C15.0753 71.8804 14.668 72.0004 14.25 72.0004C12.9402 72.0004 11.875 70.924 11.875 69.6004ZM33.25 69.6004C33.25 69.2008 33.3581 68.8072 33.5706 68.428C33.8841 67.8712 33.7084 67.1632 33.1728 66.8212C32.4781 66.376 32.0625 65.6224 32.0625 64.8004C32.0625 63.4768 33.1277 62.4004 34.4375 62.4004C35.0942 62.4004 35.625 61.864 35.625 61.2004C35.625 59.8768 36.6902 58.8004 38 58.8004C39.3098 58.8004 40.375 59.8768 40.375 61.2004C40.375 61.864 40.9058 62.4004 41.5625 62.4004C42.8723 62.4004 43.9375 63.4768 43.9375 64.8004C43.9375 65.6224 43.5219 66.376 42.8272 66.8224C42.2916 67.1644 42.1159 67.8724 42.4294 68.4292C42.6419 68.8072 42.75 69.2008 42.75 69.6004C42.75 70.924 41.6848 72.0004 40.375 72.0004C39.957 72.0004 39.5497 71.8804 39.1875 71.6632V67.6984L41.2146 65.65L39.5354 63.9532L38 65.5036L36.4646 63.952L34.7854 65.6488L36.8125 67.6972V71.6632C36.4503 71.8804 36.043 72.0004 35.625 72.0004C34.3152 72.0004 33.25 70.924 33.25 69.6004ZM54.625 69.6004C54.625 69.2008 54.7331 68.8072 54.9456 68.428C55.2591 67.8712 55.0834 67.1632 54.5478 66.8212C53.8531 66.376 53.4375 65.6224 53.4375 64.8004C53.4375 63.4768 54.5027 62.4004 55.8125 62.4004C56.4692 62.4004 57 61.864 57 61.2004C57 59.8768 58.0652 58.8004 59.375 58.8004C60.6848 58.8004 61.75 59.8768 61.75 61.2004C61.75 61.864 62.2808 62.4004 62.9375 62.4004C64.2473 62.4004 65.3125 63.4768 65.3125 64.8004C65.3125 65.6224 64.8969 66.376 64.2022 66.8224C63.6666 67.1644 63.4909 67.8724 63.8044 68.4292C64.0169 68.8072 64.125 69.2008 64.125 69.6004C64.125 70.924 63.0598 72.0004 61.75 72.0004C61.332 72.0004 60.9247 71.8804 60.5625 71.6632V67.6984L62.5896 65.65L60.9104 63.9532L59.375 65.5036L57.8396 63.952L56.1604 65.6488L58.1875 67.6972V71.6632C57.8253 71.8804 57.418 72.0004 57 72.0004C55.6902 72.0004 54.625 70.924 54.625 69.6004ZM71.25 72.0004H65.8398C66.2482 71.2912 66.5 70.4788 66.5 69.6004C66.5 69.1228 66.4276 68.6524 66.2839 68.1976C67.1757 67.3072 67.6875 66.0952 67.6875 64.8004C67.6875 62.5252 66.1117 60.6136 64.0039 60.1228C63.5182 57.9928 61.6265 56.4004 59.375 56.4004C57.1235 56.4004 55.2318 57.9928 54.7461 60.1228C52.6383 60.6136 51.0625 62.5252 51.0625 64.8004C51.0625 66.0952 51.5743 67.3072 52.4661 68.1976C52.3224 68.6524 52.25 69.1228 52.25 69.6004C52.25 70.4788 52.5018 71.2912 52.9102 72.0004H44.4648C44.8732 71.2912 45.125 70.4788 45.125 69.6004C45.125 69.1228 45.0526 68.6524 44.9089 68.1976C45.8007 67.3072 46.3125 66.0952 46.3125 64.8004C46.3125 62.5252 44.7367 60.6136 42.6289 60.1228C42.1432 57.9928 40.2515 56.4004 38 56.4004C35.7485 56.4004 33.8568 57.9928 33.3711 60.1228C31.2633 60.6136 29.6875 62.5252 29.6875 64.8004C29.6875 66.0952 30.1993 67.3072 31.0911 68.1976C30.9474 68.6524 30.875 69.1228 30.875 69.6004C30.875 70.4788 31.1267 71.2912 31.5352 72.0004H23.0898C23.4983 71.2912 23.75 70.4788 23.75 69.6004C23.75 69.1228 23.6776 68.6524 23.5339 68.1976C24.4257 67.3072 24.9375 66.0952 24.9375 64.8004C24.9375 62.5252 23.3617 60.6136 21.2539 60.1228C20.7682 57.9928 18.8765 56.4004 16.625 56.4004C14.3735 56.4004 12.4818 57.9928 11.9961 60.1228C9.88831 60.6136 8.3125 62.5252 8.3125 64.8004C8.3125 66.0952 8.82431 67.3072 9.71613 68.1976C9.57244 68.6524 9.5 69.1228 9.5 69.6004C9.5 70.4788 9.75175 71.2912 10.1602 72.0004H4.75V39.6004H22.5625V43.2004C22.5625 43.864 23.0933 44.4004 23.75 44.4004H52.25C52.9067 44.4004 53.4375 43.864 53.4375 43.2004V39.6004H71.25V72.0004Z" fill="#008798"/>
<path d="M39.1875 50.4004H36.8125V54.0004H39.1875V50.4004Z" fill="#008798"/>
<path d="M26.6172 47.0057L24.0982 49.5513L25.7775 51.2483L28.2966 48.7028L26.6172 47.0057Z" fill="#008798"/>
<path d="M49.3835 47.006L47.7041 48.7031L50.2232 51.2486L51.9025 49.5516L49.3835 47.006Z" fill="#008798"/>
<path d="M39.1875 15.7455H36.8125V19.3455H39.1875V15.7455Z" fill="#008798"/>
<path d="M26.6172 12.3519L24.0982 14.8975L25.7776 16.5945L28.2966 14.049L26.6172 12.3519Z" fill="#008798"/>
<path d="M49.3835 12.3515L47.7042 14.0485L50.2232 16.5941L51.9026 14.897L49.3835 12.3515Z" fill="#008798"/>
</svg>
