<svg width="24" height="25" viewBox="0 0 24 25" fill="none" xmlns="http://www.w3.org/2000/svg">
<path d="M19.7419 17.2435H18.9639C18.9662 17.113 18.9677 16.9821 18.9677 16.8516V16.4597V16.4283C20.2785 16.2371 21.2903 15.0955 21.2903 13.7164V11.757H20.9032C19.5182 11.757 18.3739 12.8155 18.2145 14.1749C17.7209 13.6522 17.0272 13.3245 16.2581 13.3245H14.3226V13.7164C14.3226 15.2287 15.5385 16.4597 17.0323 16.4597H18.1935V16.8516C18.1935 16.9895 18.1912 17.1173 18.1885 17.2435H7.73806C7.74039 17.113 7.74194 16.9821 7.74194 16.8516V16.4597V16.4283C9.05264 16.2371 10.0645 15.0955 10.0645 13.7164V11.757H9.67742C8.29239 11.757 7.14813 12.8155 6.98865 14.1749C6.4951 13.6522 5.80142 13.3245 5.03226 13.3245H3.09677V13.7164C3.09677 15.2287 4.31264 16.4597 5.80645 16.4597H6.96774V16.8516C6.96774 16.9895 6.96542 17.1173 6.96271 17.2435H4.25806C1.91032 17.2435 0 19.1775 0 21.5543V24.2975H24V21.5543C24 19.1775 22.0897 17.2435 19.7419 17.2435ZM17.0323 15.6759C16.0974 15.6759 15.3155 15.0014 15.1359 14.1083H16.2581C17.1929 14.1083 17.9748 14.7828 18.1544 15.6759H17.0323ZM18.9677 14.5002C18.9677 13.5538 19.6339 12.7622 20.5161 12.5803V13.7164C20.5161 14.6628 19.8499 15.4545 18.9677 15.6363V14.5002ZM5.80645 15.6759C4.87161 15.6759 4.08968 15.0014 3.91006 14.1083H5.03226C5.9671 14.1083 6.74903 14.7828 6.92865 15.6759H5.80645ZM7.74194 14.5002C7.74194 13.5538 8.40813 12.7622 9.29032 12.5803V13.7164C9.29032 14.6628 8.62413 15.4545 7.74194 15.6363V14.5002ZM23.2258 23.5138H0.774194V21.5543C0.774194 19.6093 2.3369 18.0273 4.25806 18.0273H6.92284C6.87639 18.5783 6.79626 18.9831 6.69019 19.2711C6.27174 18.9858 5.688 18.811 5.03226 18.811C3.73006 18.811 2.70968 19.4996 2.70968 20.3786C2.70968 21.2576 3.73006 21.9462 5.03226 21.9462C6.33445 21.9462 7.35484 21.2576 7.35484 20.3786C7.35484 20.2109 7.3169 20.0498 7.248 19.8993C7.51665 19.4051 7.64555 18.7444 7.70168 18.0273H18.149C18.1026 18.5783 18.0225 18.9831 17.9164 19.2711C17.4975 18.9858 16.9138 18.811 16.2581 18.811C14.9559 18.811 13.9355 19.4996 13.9355 20.3786C13.9355 21.2576 14.9559 21.9462 16.2581 21.9462C17.5603 21.9462 18.5806 21.2576 18.5806 20.3786C18.5806 20.2109 18.5427 20.0498 18.4738 19.8993C18.7425 19.4051 18.8714 18.7444 18.9275 18.0273H19.7419C21.6631 18.0273 23.2258 19.6093 23.2258 21.5543V23.5138ZM5.80645 20.7705C6.06232 20.7705 6.28103 20.7211 6.47458 20.6392C6.25587 20.919 5.71123 21.1624 5.03226 21.1624C4.14619 21.1624 3.48387 20.7486 3.48387 20.3786C3.48387 20.0087 4.14619 19.5948 5.03226 19.5948C5.52077 19.5948 5.93613 19.7222 6.21484 19.8974C6.08555 19.964 5.94735 19.9867 5.80645 19.9867H5.03226V20.7705H5.80645ZM17.0323 20.7705C17.2881 20.7705 17.5068 20.7211 17.7004 20.6392C17.4817 20.919 16.937 21.1624 16.2581 21.1624C15.372 21.1624 14.7097 20.7486 14.7097 20.3786C14.7097 20.0087 15.372 19.5948 16.2581 19.5948C16.7466 19.5948 17.1619 19.7222 17.4406 19.8974C17.3114 19.964 17.1732 19.9867 17.0323 19.9867H16.2581V20.7705H17.0323Z" fill="#008798"/>
<path d="M22.0645 0H1.93548C0.868258 0 0 0.87902 0 1.95947V12.1487H0.774194V1.95947C0.774194 1.31128 1.29523 0.78379 1.93548 0.78379H8.16813C8.34813 1.67692 9.13006 2.35137 10.0645 2.35137H13.9355C14.8699 2.35137 15.6519 1.67692 15.8319 0.78379H22.0645C22.7048 0.78379 23.2258 1.31128 23.2258 1.95947V12.1487H24V1.95947C24 0.87902 23.1317 0 22.0645 0ZM13.9355 1.56758H10.0645C9.56052 1.56758 9.13471 1.23878 8.97445 0.78379H15.0252C14.8653 1.23878 14.4395 1.56758 13.9355 1.56758Z" fill="#008798"/>
<path d="M12.3871 4.70288H11.6129V5.48743H12.3871V4.70288Z" fill="#008798"/>
<path d="M12.3871 9.40582H11.6129V10.1904H12.3871V9.40582Z" fill="#008798"/>
<path d="M12.3871 3.1355H11.6129V3.92004H12.3871V3.1355Z" fill="#008798"/>
<path d="M12.3871 7.83771H11.6129V8.62219H12.3871V7.83771Z" fill="#008798"/>
<path d="M12.3871 6.27032H11.6129V7.05487H12.3871V6.27032Z" fill="#008798"/>
<path d="M15.1402 5.12429L14.4248 5.42422L14.7214 6.1493L15.4368 5.84937L15.1402 5.12429Z" fill="#008798"/>
<path d="M14.5476 3.67543L13.8323 3.97549L14.1289 4.70011L14.8442 4.40005L14.5476 3.67543Z" fill="#008798"/>
<path d="M15.7324 6.57161L15.0171 6.87167L15.3137 7.59633L16.029 7.29627L15.7324 6.57161Z" fill="#008798"/>
<path d="M16.5044 2.46582L15.9567 3.02029L16.5044 3.57477L17.0521 3.02029L16.5044 2.46582Z" fill="#008798"/>
<path d="M17.599 3.57426L17.0513 4.12872L17.599 4.68319L18.1467 4.12872L17.599 3.57426Z" fill="#008798"/>
<path d="M18.694 4.6826L18.1463 5.23709L18.694 5.79158L19.2417 5.23709L18.694 4.6826Z" fill="#008798"/>
<path d="M6.40121 3.57426L5.85352 4.12872L6.40121 4.68319L6.9489 4.12872L6.40121 3.57426Z" fill="#008798"/>
<path d="M5.30599 4.6826L4.7583 5.23709L5.30599 5.79158L5.85368 5.23709L5.30599 4.6826Z" fill="#008798"/>
<path d="M7.49592 2.46582L6.94824 3.02029L7.49592 3.57477L8.04359 3.02029L7.49592 2.46582Z" fill="#008798"/>
<path d="M9.4523 3.67525L9.1557 4.39987L9.871 4.69993L10.1676 3.97531L9.4523 3.67525Z" fill="#008798"/>
<path d="M8.26717 6.5714L7.97058 7.29607L8.68587 7.59617L8.98246 6.8715L8.26717 6.5714Z" fill="#008798"/>
<path d="M8.85963 5.12291L8.56287 5.84793L9.27818 6.148L9.57494 5.42297L8.85963 5.12291Z" fill="#008798"/>
</svg>
